<svg width="1174" height="315" viewBox="0 0 1174 315" fill="none" xmlns="http://www.w3.org/2000/svg">
<mask id="mask0_2048_331" style="mask-type:luminance" maskUnits="userSpaceOnUse" x="1" y="0" width="1172" height="315">
<path d="M1.8584 0H1172.14V314.005H1.8584V0Z" fill="white"/>
</mask>
<g mask="url(#mask0_2048_331)">
<path d="M1.8584 0H1172.14V314.005H1.8584V0Z" fill="white"/>
<path d="M2 182H1172V314H2V182Z" fill="#FF5948"/>
</g>
<mask id="mask1_2048_331" style="mask-type:luminance" maskUnits="userSpaceOnUse" x="1" y="57" width="297" height="258">
<path d="M1.8584 57.3335H297.169V314.005H1.8584V57.3335Z" fill="white"/>
</mask>
<g mask="url(#mask1_2048_331)">
<mask id="mask2_2048_331" style="mask-type:luminance" maskUnits="userSpaceOnUse" x="-118" y="-32" width="1410" height="379">
<path d="M1291.4 -31.5H-117.399V346.5H1291.4V-31.5Z" fill="black" fill-opacity="0.2"/>
</mask>
<g mask="url(#mask2_2048_331)">
<mask id="mask3_2048_331" style="mask-type:luminance" maskUnits="userSpaceOnUse" x="1" y="57" width="297" height="258">
<path d="M297.169 57.3335H1.22363V314.667H297.169V57.3335Z" fill="white"/>
</mask>
<g mask="url(#mask3_2048_331)">
<mask id="mask4_2048_331" style="mask-type:luminance" maskUnits="userSpaceOnUse" x="1" y="57" width="296" height="258">
<path d="M1.85938 57.417H296.047V314.006H1.85938V57.417Z" fill="white"/>
</mask>
<g mask="url(#mask4_2048_331)">
<mask id="mask5_2048_331" style="mask-type:luminance" maskUnits="userSpaceOnUse" x="-137" y="57" width="434" height="417">
<path d="M80.0065 57.6147C-39.3139 57.6147 -136.034 150.651 -136.034 265.412C-136.034 380.177 -39.3139 473.214 80.0065 473.214C199.322 473.214 296.047 380.177 296.047 265.412C296.047 150.651 199.322 57.6147 80.0065 57.6147Z" fill="white"/>
</mask>
<g mask="url(#mask5_2048_331)">
<path d="M-136.034 57.6147H296.047V472.938H-136.034V57.6147Z" fill="#F9B992"/>
</g>
</g>
</g>
</g>
</g>
<mask id="mask6_2048_331" style="mask-type:luminance" maskUnits="userSpaceOnUse" x="857" y="57" width="316" height="258">
<path d="M857.264 57.3335H1172.14V314.005H857.264V57.3335Z" fill="white"/>
</mask>
<g mask="url(#mask6_2048_331)">
<mask id="mask7_2048_331" style="mask-type:luminance" maskUnits="userSpaceOnUse" x="-118" y="-32" width="1410" height="379">
<path d="M1291.4 -31.5H-117.401V346.5H1291.4V-31.5Z" fill="black" fill-opacity="0.2"/>
</mask>
<g mask="url(#mask7_2048_331)">
<mask id="mask8_2048_331" style="mask-type:luminance" maskUnits="userSpaceOnUse" x="857" y="57" width="316" height="258">
<path d="M1172.78 57.3335H857.264V314.667H1172.78V57.3335Z" fill="white"/>
</mask>
<g mask="url(#mask8_2048_331)">
<mask id="mask9_2048_331" style="mask-type:luminance" maskUnits="userSpaceOnUse" x="858" y="57" width="315" height="258">
<path d="M858.172 57.6147H1172.14V314.005H858.172V57.6147Z" fill="white"/>
</mask>
<g mask="url(#mask9_2048_331)">
<mask id="mask10_2048_331" style="mask-type:luminance" maskUnits="userSpaceOnUse" x="858" y="57" width="409" height="390">
<path d="M1062.21 57.6147C949.523 57.6147 858.172 144.771 858.172 252.287C858.172 359.797 949.523 446.953 1062.21 446.953C1174.89 446.953 1266.24 359.797 1266.24 252.287C1266.24 144.771 1174.89 57.6147 1062.21 57.6147Z" fill="white"/>
</mask>
<g mask="url(#mask10_2048_331)">
<path d="M858.172 57.6147H1266.24V446.792H858.172V57.6147Z" fill="#F9B992"/>
</g>
</g>
</g>
</g>
</g>
<mask id="mask11_2048_331" style="mask-type:luminance" maskUnits="userSpaceOnUse" x="280" y="216" width="27" height="28">
<path d="M280.048 216.109H306.952V244H280.048V216.109Z" fill="white"/>
</mask>
<g mask="url(#mask11_2048_331)">
<path d="M281.447 229.057C288.359 227.203 290.628 224.734 292.329 217.198C292.573 216.109 293.987 216.109 294.235 217.198C295.936 224.734 298.2 227.208 305.112 229.057C306.111 229.328 306.111 230.87 305.112 231.135C298.2 232.989 295.931 235.463 294.235 243C293.987 244.088 292.573 244.088 292.329 243C290.628 235.463 288.359 232.989 281.447 231.135C280.449 230.87 280.449 229.328 281.447 229.057Z" fill="#FFBD59"/>
</g>
<mask id="mask12_2048_331" style="mask-type:luminance" maskUnits="userSpaceOnUse" x="297" y="245" width="19" height="20">
<path d="M297.169 245.333H315.814V264.953H297.169V245.333Z" fill="white"/>
</mask>
<g mask="url(#mask12_2048_331)">
<path d="M298.115 254.698C303.169 253.37 304.774 251.62 305.992 246.109C306.15 245.38 307.105 245.38 307.263 246.109C308.481 251.625 310.086 253.37 315.14 254.698C315.809 254.875 315.809 255.911 315.14 256.089C310.086 257.411 308.481 259.161 307.263 264.672C307.1 265.401 306.15 265.401 305.992 264.672C304.774 259.161 303.169 257.411 298.115 256.089C297.446 255.911 297.446 254.875 298.115 254.698Z" fill="#FFBD59"/>
</g>
<mask id="mask13_2048_331" style="mask-type:luminance" maskUnits="userSpaceOnUse" x="263" y="236" width="18" height="18">
<path d="M263.696 236H280.048V253.333H263.696V236Z" fill="white"/>
</mask>
<g mask="url(#mask13_2048_331)">
<path d="M263.954 244.156C268.803 243.021 270.035 241.682 271.077 236.396C271.11 236.208 271.22 236.115 271.397 236.115C271.574 236.115 271.679 236.208 271.717 236.396C272.754 241.682 273.986 243.021 278.835 244.156C279.007 244.198 279.093 244.313 279.093 244.505C279.093 244.698 279.007 244.813 278.835 244.854C273.986 245.99 272.754 247.328 271.717 252.615C271.679 252.807 271.574 252.901 271.397 252.901C271.22 252.901 271.11 252.807 271.077 252.615C270.035 247.328 268.803 245.99 263.954 244.854C263.782 244.813 263.696 244.698 263.696 244.505C263.696 244.313 263.782 244.198 263.954 244.156Z" fill="#FFBD59"/>
</g>
<path d="M21.9456 96.2762C16.4377 109.589 8.28333 135.068 11.5604 166.766C15.7641 207.432 36.5776 239.49 56.8274 257.505C124.011 317.287 247 278.667 263.285 222.354C266.238 212.141 265.411 202.287 264.389 190.162C261.136 151.599 244.01 140.136 232.493 99.1929C222.012 61.9273 232.345 57.7346 222.547 41.1721C201.284 5.23457 139.909 3.42728 97.6804 20.6512C81.4577 27.271 42.0998 47.5679 21.9456 96.2762Z" fill="#FFBD59"/>
<path d="M121.537 122.521C121.489 122.521 121.446 122.51 121.398 122.495C120.242 122.099 119.058 121.724 117.882 121.37C117.639 121.297 117.495 121.021 117.562 120.755C117.629 120.489 117.882 120.328 118.126 120.401C119.311 120.76 120.505 121.14 121.675 121.541C121.919 121.625 122.053 121.906 121.976 122.166C121.914 122.385 121.733 122.521 121.537 122.521ZM128.473 125.198C128.416 125.198 128.358 125.182 128.306 125.161C127.174 124.672 126.018 124.203 124.871 123.76C124.632 123.666 124.508 123.38 124.594 123.12C124.675 122.859 124.943 122.719 125.177 122.812C126.338 123.26 127.503 123.734 128.64 124.229C128.879 124.328 128.994 124.62 128.898 124.88C128.827 125.073 128.655 125.198 128.473 125.198ZM135.213 128.416C135.147 128.416 135.075 128.396 135.013 128.364C133.914 127.786 132.796 127.224 131.683 126.698C131.454 126.588 131.344 126.291 131.449 126.036C131.549 125.781 131.822 125.666 132.051 125.776C133.174 126.312 134.301 126.88 135.409 127.463C135.639 127.583 135.734 127.88 135.624 128.13C135.548 128.312 135.381 128.416 135.213 128.416ZM141.72 132.161C141.639 132.161 141.562 132.135 141.49 132.094C140.439 131.432 139.36 130.781 138.28 130.166C138.056 130.036 137.97 129.729 138.089 129.484C138.209 129.239 138.486 129.151 138.71 129.276C139.799 129.901 140.889 130.557 141.949 131.224C142.169 131.359 142.245 131.666 142.121 131.906C142.035 132.068 141.877 132.161 141.72 132.161ZM147.963 136.406C147.873 136.406 147.782 136.38 147.705 136.323C146.697 135.578 145.661 134.849 144.634 134.146C144.419 134 144.352 133.687 144.486 133.453C144.619 133.219 144.906 133.146 145.121 133.291C146.158 134 147.204 134.739 148.216 135.489C148.431 135.646 148.484 135.958 148.341 136.187C148.255 136.328 148.111 136.406 147.963 136.406ZM153.906 141.135C153.806 141.135 153.705 141.099 153.624 141.026C152.669 140.208 151.685 139.396 150.701 138.614C150.495 138.453 150.452 138.135 150.6 137.911C150.748 137.693 151.04 137.64 151.245 137.807C152.239 138.594 153.228 139.411 154.193 140.239C154.393 140.406 154.427 140.724 154.269 140.943C154.178 141.068 154.044 141.135 153.906 141.135ZM159.524 146.312C159.414 146.312 159.304 146.271 159.213 146.182C158.315 145.291 157.388 144.406 156.462 143.552C156.266 143.37 156.242 143.057 156.409 142.844C156.571 142.63 156.858 142.604 157.054 142.786C157.99 143.646 158.927 144.541 159.834 145.443C160.02 145.63 160.035 145.948 159.863 146.151C159.772 146.26 159.648 146.312 159.524 146.312ZM164.788 151.922C164.664 151.922 164.544 151.87 164.454 151.765C163.618 150.807 162.753 149.854 161.879 148.922C161.697 148.729 161.697 148.411 161.874 148.213C162.051 148.015 162.342 148.015 162.524 148.208C163.403 149.14 164.277 150.109 165.118 151.073C165.294 151.276 165.29 151.594 165.103 151.781C165.017 151.875 164.903 151.922 164.788 151.922Z" fill="white"/>
<path d="M160.713 19.0261C160.689 19.0261 160.665 19.0261 160.641 19.0209C160.393 18.9792 160.221 18.724 160.259 18.448L160.627 15.8855C160.665 15.6094 160.904 15.4271 161.153 15.4688C161.406 15.5105 161.578 15.7657 161.535 16.0417L161.172 18.6042C161.133 18.8542 160.938 19.0261 160.713 19.0261Z" fill="black"/>
<path d="M159.859 24.9949C159.835 24.9949 159.811 24.9949 159.787 24.9896C159.538 24.948 159.367 24.6876 159.405 24.4167L159.773 21.8542C159.811 21.5782 160.045 21.3959 160.298 21.4376C160.546 21.4792 160.718 21.7344 160.68 22.0105L160.312 24.573C160.274 24.8178 160.083 24.9949 159.859 24.9949Z" fill="black"/>
<path d="M158.907 20.4638C158.883 20.4638 158.859 20.4586 158.835 20.4586L156.485 20.0575C156.237 20.0107 156.065 19.7554 156.103 19.4846C156.141 19.2086 156.38 19.0263 156.628 19.0627L158.979 19.4638C159.232 19.5107 159.404 19.7659 159.361 20.0367C159.327 20.2867 159.132 20.4638 158.907 20.4638Z" fill="black"/>
<path d="M164.382 21.3959C164.363 21.3959 164.339 21.3959 164.31 21.3907L161.96 20.9896C161.711 20.948 161.539 20.6928 161.578 20.4167C161.616 20.1407 161.855 19.9584 162.103 20.0001L164.453 20.4011C164.707 20.4428 164.879 20.698 164.836 20.974C164.802 21.2188 164.606 21.3959 164.382 21.3959Z" fill="black"/>
<path d="M145.684 22.3178C146.458 22.8282 147.485 22.547 147.973 21.698C148.207 21.2814 148.283 20.797 148.183 20.3335C148.078 19.8803 147.824 19.4949 147.457 19.2501C146.683 18.7449 145.656 19.021 145.168 19.8699C144.934 20.2866 144.858 20.771 144.958 21.2345C145.059 21.6928 145.316 22.073 145.684 22.3178ZM146.525 23.573C146.071 23.573 145.617 23.448 145.211 23.1772C144.629 22.797 144.223 22.1876 144.065 21.4689C143.907 20.7397 144.017 19.9845 144.39 19.3387C145.14 18.0262 146.726 17.6043 147.93 18.3907C148.512 18.7762 148.918 19.3803 149.076 20.0991C149.234 20.8282 149.119 21.5835 148.751 22.2293C148.259 23.0939 147.394 23.573 146.525 23.573Z" fill="black"/>
<path d="M136.288 283.844C137.062 284.354 138.089 284.078 138.576 283.224C138.81 282.812 138.887 282.328 138.782 281.859C138.686 281.406 138.428 281.021 138.06 280.781C137.286 280.271 136.259 280.547 135.772 281.396C135.533 281.812 135.462 282.297 135.562 282.766C135.662 283.219 135.92 283.599 136.288 283.844ZM137.129 285.099C136.68 285.099 136.221 284.974 135.815 284.703C135.232 284.323 134.826 283.713 134.669 282.995C134.511 282.266 134.626 281.51 134.993 280.865C135.743 279.552 137.334 279.13 138.533 279.922C139.116 280.302 139.522 280.906 139.68 281.625C139.837 282.354 139.723 283.115 139.355 283.755C138.863 284.62 138.003 285.099 137.129 285.099Z" fill="black"/>
<path d="M146.984 284.443C147.758 284.953 148.78 284.677 149.268 283.828C149.506 283.412 149.578 282.927 149.478 282.458C149.377 282.005 149.119 281.62 148.752 281.38C147.978 280.87 146.955 281.151 146.468 282C146.229 282.412 146.158 282.896 146.258 283.365C146.358 283.818 146.616 284.203 146.984 284.443ZM147.825 285.703C147.371 285.703 146.917 285.573 146.506 285.302C145.928 284.922 145.518 284.318 145.36 283.599C145.202 282.87 145.317 282.115 145.685 281.469C146.44 280.156 148.026 279.729 149.229 280.521C149.807 280.901 150.213 281.511 150.371 282.229C150.533 282.958 150.419 283.714 150.046 284.36C149.554 285.224 148.694 285.703 147.825 285.703Z" fill="black"/>
<path d="M261.002 247.709L258.848 249.865C257.209 251.505 255.007 252.266 252.891 251.917L24.793 214.432C21.7596 213.932 20.293 210.495 20.2596 207.11L18.7405 35.6877C18.7214 33.6669 19.8344 25.5991 19.8344 25.5991C19.8344 25.5991 25.3853 21.245 28.6958 19.5679C30.2101 18.8023 31.8677 18.5366 33.468 18.7919L259.345 55.2294C261.652 55.5991 263.309 57.7137 263.319 60.2919L263.825 240.771C263.835 243.37 262.803 245.901 261.002 247.709Z" fill="#A82223"/>
<path d="M254.085 251.489L25.5284 214.625C21.9791 214.052 19.4329 210.802 19.4186 206.838L18.917 28.703C18.9122 26.6093 20.6654 24.927 22.538 25.2291L251.701 62.1926C254.008 62.5624 255.666 64.677 255.671 67.2551L256.187 249.474C256.192 250.687 255.174 251.667 254.085 251.489Z" fill="#DD3627"/>
<path d="M19.184 125.021C18.9308 125.021 18.7254 124.797 18.7254 124.521L18.4531 28.703C18.4531 27.5468 18.9213 26.4426 19.7381 25.6718C20.5455 24.9113 21.5868 24.5728 22.6044 24.7343L161.773 47.4582C162.022 47.4999 162.198 47.7551 162.16 48.0259C162.122 48.302 161.888 48.4895 161.639 48.4478L22.4706 25.7238C21.7206 25.6041 20.942 25.8593 20.34 26.427C19.7238 27.0103 19.3751 27.8384 19.3751 28.6978L19.6474 124.516C19.6474 124.792 19.442 125.016 19.1888 125.021C19.1888 125.021 19.1888 125.021 19.184 125.021Z" fill="black"/>
<path d="M254.338 252.01C254.233 252.01 254.128 252 254.018 251.984L240.786 249.833C240.533 249.792 240.361 249.536 240.399 249.266C240.437 248.99 240.671 248.797 240.92 248.844L254.157 250.995C254.534 251.052 254.926 250.922 255.232 250.635C255.552 250.338 255.728 249.911 255.728 249.474L255.212 67.2551C255.212 65.8645 254.668 64.5728 253.722 63.7031C253.526 63.526 253.502 63.2135 253.665 62.9999C253.827 62.7864 254.118 62.7603 254.314 62.9374C255.466 63.9947 256.13 65.5676 256.134 67.2499L256.65 249.469C256.65 250.203 256.354 250.906 255.838 251.396C255.413 251.792 254.878 252.01 254.338 252.01Z" fill="black"/>
<path d="M203.787 179.62L99.3092 161.703C96.7535 161.266 94.9287 158.906 94.9287 156.047V52.1301C94.9287 48.2707 98.1819 45.1874 101.636 45.7759L206.114 63.6978C208.67 64.1353 210.49 66.4895 210.49 69.3488V173.266C210.49 177.125 207.236 180.213 203.787 179.62Z" fill="white"/>
<path d="M106.021 152.208L103.055 151.625C101.75 151.37 100.704 149.922 100.709 148.37L100.738 131.411C100.738 129.823 101.836 128.729 103.169 128.984L106.112 129.547C107.421 129.797 108.472 131.245 108.472 132.802C108.472 137.13 108.472 145.39 108.472 149.781C108.472 151.38 107.363 152.474 106.021 152.208Z" fill="#FFBD59"/>
<path d="M116.54 154.016L113.569 153.432C112.265 153.177 111.224 151.729 111.224 150.177L111.257 122.51C111.257 120.922 112.356 119.828 113.693 120.083L116.631 120.646C117.94 120.896 118.986 122.344 118.986 123.901C118.986 130.156 118.986 145.229 118.986 151.589C118.986 153.188 117.883 154.281 116.54 154.016Z" fill="#FFBD59"/>
<path d="M127.059 155.818L124.088 155.235C122.784 154.979 121.737 153.531 121.742 151.979L121.771 130.021C121.771 128.427 122.87 127.334 124.207 127.589L127.15 128.156C128.454 128.406 129.505 129.849 129.505 131.406C129.505 136.682 129.505 148.031 129.505 153.391C129.505 154.99 128.401 156.084 127.059 155.818Z" fill="#FFBD59"/>
<path d="M137.574 157.62L134.602 157.036C133.298 156.781 132.257 155.333 132.257 153.781L132.29 110.583C132.29 108.995 133.389 107.901 134.727 108.156L137.664 108.719C138.973 108.969 140.019 110.417 140.019 111.974C140.019 120.562 140.019 146.463 140.019 155.193C140.019 156.792 138.916 157.885 137.574 157.62Z" fill="#FFBD59"/>
<path d="M148.092 159.427L145.121 158.844C143.817 158.589 142.771 157.141 142.775 155.589L142.809 101.266C142.809 99.6719 143.908 98.5781 145.245 98.8334L148.183 99.3959C149.487 99.6459 150.538 101.094 150.538 102.651C150.538 112.682 150.538 146.786 150.538 156.995C150.538 158.594 149.435 159.693 148.092 159.427Z" fill="#FFBD59"/>
<path d="M158.612 161.229L155.636 160.646C154.331 160.391 153.29 158.943 153.29 157.391L153.323 94.7968C153.328 93.2082 154.422 92.1093 155.76 92.3645L158.698 92.927C160.007 93.1822 161.053 94.6249 161.053 96.1822C161.053 107.208 161.053 147.578 161.053 158.802C161.053 160.396 159.954 161.495 158.612 161.229Z" fill="#DD3627"/>
<path d="M169.125 163.036L166.154 162.448C164.85 162.193 163.809 160.745 163.809 159.198L163.842 114.734C163.842 113.141 164.941 112.047 166.278 112.302L169.216 112.865C170.525 113.115 171.571 114.563 171.571 116.12C171.571 124.88 171.571 151.698 171.571 160.604C171.571 162.203 170.468 163.297 169.125 163.036Z" fill="#FFBD59"/>
<path d="M179.645 164.839L176.669 164.255C175.37 164 174.323 162.552 174.328 161L174.362 101.995C174.362 100.406 175.456 99.3125 176.793 99.5677L179.731 100.13C181.04 100.38 182.091 101.828 182.091 103.38C182.091 113.99 182.091 151.625 182.091 162.411C182.091 164.01 180.987 165.104 179.645 164.839Z" fill="#FFBD59"/>
<path d="M190.159 166.641L187.187 166.057C185.883 165.802 184.842 164.354 184.842 162.802L184.875 86.0781C184.875 84.4896 185.974 83.3906 187.312 83.651L190.249 84.2083C191.558 84.4635 192.604 85.9114 192.604 87.4635C192.604 100.062 192.604 151.396 192.604 164.214C192.604 165.812 191.506 166.906 190.159 166.641Z" fill="#FFBD59"/>
<path d="M200.821 168.469L197.845 167.885C196.54 167.63 195.499 166.182 195.499 164.63L195.537 76C195.537 74.4063 196.636 73.3125 197.974 73.5677L200.911 74.1302C202.216 74.3802 203.266 75.8281 203.266 77.3854C203.266 91.2031 203.266 151.984 203.266 166.042C203.266 167.641 202.163 168.734 200.821 168.469Z" fill="#DD3627"/>
<path d="M170.755 230.974L128.899 223.677C127.566 223.448 126.481 222.01 126.481 220.469V175.083C126.481 173.542 127.566 172.479 128.899 172.714L170.755 180.01C172.088 180.245 173.167 181.682 173.167 183.219V228.609C173.167 230.151 172.088 231.208 170.755 230.974Z" fill="white"/>
<path d="M137.607 221.333L133.422 220.604V187.833L137.607 188.563V221.333Z" fill="#DD3627"/>
<path d="M137.607 221.333L133.422 220.604V199.463L137.607 200.193V221.333Z" fill="#FFBD59"/>
<path d="M145.45 222.703L141.266 221.974V194.037L145.45 194.766V222.703Z" fill="#DD3627"/>
<path d="M145.45 222.703L141.266 221.974V205.963L145.45 206.693V222.703Z" fill="#FFBD59"/>
<path d="M152.774 224.13L148.589 223.401V198.031L152.774 198.76V224.13Z" fill="#DD3627"/>
<path d="M152.774 224.13L148.589 223.401V211.62L152.774 212.349V224.13Z" fill="#FFBD59"/>
<path d="M160.288 225.739L156.108 225.01V192.245L160.288 192.969V225.739Z" fill="#DD3627"/>
<path d="M160.288 225.74L156.108 225.011V197.677L160.288 198.406V225.74Z" fill="#FFBD59"/>
<path d="M167.874 226.912L163.689 226.182V195.677L167.874 196.406V226.912Z" fill="#DD3627"/>
<path d="M167.874 226.912L163.689 226.182V206.099L167.874 206.828V226.912Z" fill="#FFBD59"/>
<path d="M170.487 227.833C170.463 227.833 170.439 227.828 170.415 227.828L129.873 220.76C129.037 220.615 128.387 219.755 128.392 218.802L128.549 180.078C128.549 179.802 128.759 179.578 129.008 179.578H129.013C129.266 179.583 129.471 179.807 129.471 180.083L129.314 218.807C129.309 219.26 129.634 219.703 130.016 219.766L170.558 226.833C170.812 226.88 170.979 227.135 170.941 227.411C170.907 227.656 170.711 227.833 170.487 227.833Z" fill="#A82223"/>
<path d="M145.861 181.547L133.293 179.354V176.787L145.861 178.979V181.547Z" fill="#DD3627"/>
<path d="M145.909 185.479L133.341 183.292V180.724L145.909 182.917V185.479Z" fill="#DD3627"/>
<path d="M84.5816 151.625L27.2382 140.666C25.8624 140.406 24.8545 139.099 24.8545 137.578V37.5623C24.8545 35.6144 26.4691 34.1352 28.2318 34.4737L85.5752 45.4269C86.951 45.6925 87.9589 46.9998 87.9589 48.5206V148.536C87.9589 150.484 86.3443 151.963 84.5816 151.625Z" fill="white"/>
<path d="M81.434 78.7344C83.3543 94.2449 73.5662 106.792 59.5791 106.76C45.5872 106.724 32.6941 94.1251 30.7737 78.6146C28.8581 63.1094 38.6415 50.5626 52.6333 50.5938C66.6204 50.6303 79.5184 63.224 81.434 78.7344Z" fill="#FFBD59"/>
<path d="M56.5645 78.7866L72.8636 102.136C79.0833 97.12 82.5323 88.521 81.3237 78.7345C80.5546 72.5366 78.0324 66.8022 74.3875 62.146L56.5645 78.7866Z" fill="#DD3627"/>
<path d="M58.1218 51.2812L56.5645 78.7865L74.3923 62.1562C70.1551 56.7448 64.3988 52.7969 58.1218 51.2812Z" fill="#A82223"/>
<path d="M63.8208 78.6926C64.4084 83.4217 61.4275 87.2447 57.1616 87.2342C52.9005 87.2238 48.9691 83.3853 48.3863 78.6561C47.8035 73.9321 50.7843 70.1092 55.0454 70.1197C59.3113 70.1301 63.238 73.9686 63.8208 78.6926Z" fill="white"/>
<path d="M81.0135 125.375L31.2227 117.891V111.943L81.0135 119.427V125.375Z" fill="#FFBD59"/>
<path d="M81.1277 136.432L31.332 128.948V123L81.1277 130.484V136.432Z" fill="#FFBD59"/>
<path d="M87.9595 79.6873C87.7015 79.6873 87.4961 79.4581 87.4961 79.1821V48.5206C87.4961 47.2394 86.6554 46.1456 85.4945 45.9269L28.1512 34.9685C27.4442 34.8279 26.7277 35.0415 26.1783 35.5467C25.629 36.0467 25.3184 36.7811 25.3184 37.5623V78.2081C25.3184 78.4894 25.113 78.7133 24.8551 78.7133C24.6019 78.7133 24.3965 78.4894 24.3965 78.2081V37.5623C24.3965 36.4842 24.8312 35.4685 25.586 34.7758C26.3455 34.0831 27.3391 33.7915 28.3136 33.979L85.657 44.9373C87.2573 45.2446 88.4181 46.7498 88.4181 48.5206V79.1821C88.4181 79.4581 88.2127 79.6873 87.9595 79.6873Z" fill="black"/>
<path d="M246.131 204.844L181.617 193.557V186.292L246.131 197.573V204.844Z" fill="#FFBD59"/>
<path d="M246.432 216.5L181.918 205.219V197.948L246.432 209.234V216.5Z" fill="#FFBD59"/>
<path d="M246.537 228.594L182.019 217.307V210.042L246.537 221.323V228.594Z" fill="#FFBD59"/>
<path d="M246.537 239.849L182.019 228.562V221.297L246.537 232.578V239.849Z" fill="#FFBD59"/>
<path d="M245.797 80.2394L221.778 76.5259V69.729L245.797 73.4425V80.2394Z" fill="#FFBD59"/>
<path d="M248.238 99.2134L217.526 94.4634V87.6665L248.238 92.4113V99.2134Z" fill="#FFBD59"/>
<path d="M248.338 110.245L217.622 105.5V98.6978L248.338 103.448V110.245Z" fill="#FFBD59"/>
<path d="M248.433 132.531L217.722 127.787V120.99L248.433 125.735V132.531Z" fill="#FFBD59"/>
<path d="M248.338 143.656L217.622 138.906V132.109L248.338 136.854V143.656Z" fill="#FFBD59"/>
<path d="M248.137 154.646L217.426 149.896V142.771L248.137 147.521V154.646Z" fill="#FFBD59"/>
<path d="M145.609 234.516C145.585 234.516 145.561 234.516 145.537 234.511L114.72 229.495C114.467 229.453 114.295 229.198 114.333 228.927C114.372 228.651 114.606 228.464 114.859 228.505L145.675 233.521C145.924 233.557 146.101 233.813 146.062 234.089C146.029 234.339 145.833 234.516 145.609 234.516Z" fill="black"/>
<path d="M253.287 56.5158C253.287 80.8804 235.178 100.625 212.836 100.625C190.493 100.625 172.384 80.8804 172.384 56.5158C172.384 32.1564 190.493 12.4116 212.836 12.4116C235.178 12.4116 253.287 32.1564 253.287 56.5158Z" fill="black"/>
<path d="M248.31 56.5158C248.31 80.8804 230.195 100.625 207.853 100.625C185.511 100.625 167.401 80.8804 167.401 56.5158C167.401 32.1564 185.511 12.4116 207.853 12.4116C230.195 12.4116 248.31 32.1564 248.31 56.5158Z" fill="#A82223"/>
<path d="M207.853 12.9168C185.797 12.9168 167.859 32.4741 167.859 56.5158C167.859 80.5627 185.797 100.125 207.853 100.125C229.903 100.125 247.846 80.5627 247.846 56.5158C247.846 32.4741 229.903 12.9168 207.853 12.9168ZM207.853 101.125C185.291 101.125 166.938 81.1147 166.938 56.5158C166.938 31.922 185.291 11.9116 207.853 11.9116C230.415 11.9116 248.763 31.922 248.763 56.5158C248.763 81.1147 230.415 101.125 207.853 101.125Z" fill="black"/>
<path d="M234.819 56.5158C234.819 72.7554 222.748 85.922 207.853 85.922C192.958 85.922 180.882 72.7554 180.882 56.5158C180.882 40.2814 192.958 27.1147 207.853 27.1147C222.748 27.1147 234.819 40.2814 234.819 56.5158Z" fill="white"/>
<path d="M221.338 56.5158C221.338 64.6356 215.3 71.2189 207.853 71.2189C200.405 71.2189 194.367 64.6356 194.367 56.5158C194.367 48.396 200.405 41.8179 207.853 41.8179C215.3 41.8179 221.338 48.396 221.338 56.5158Z" fill="#A82223"/>
<path d="M208.149 56.8853L216.022 50.2759L216.81 51.5363L208.302 57.1248C208.159 57.2238 208.015 56.9998 208.149 56.8853Z" fill="white"/>
<path d="M215.916 50.9999L212.95 53.4895L216.155 51.3801L215.916 50.9999ZM208.23 57.6509C208.044 57.6509 207.858 57.552 207.743 57.3645C207.561 57.078 207.619 56.6978 207.867 56.4843L215.74 49.8801C215.84 49.7968 215.969 49.7603 216.093 49.7811C216.217 49.802 216.332 49.8801 216.399 49.9947L217.192 51.2551C217.264 51.3697 217.287 51.5103 217.259 51.6457C217.235 51.7811 217.158 51.8957 217.049 51.9686L208.546 57.5572C208.445 57.6197 208.335 57.6509 208.23 57.6509Z" fill="black"/>
<path d="M215.83 51.3439C215.525 50.8543 215.639 50.1877 216.088 49.8543L219.27 47.4897L220.378 49.2554L217.192 51.62C216.748 51.9533 216.136 51.8283 215.83 51.3439Z" fill="white"/>
<path d="M216.208 51.0624C216.371 51.3228 216.695 51.3853 216.934 51.2082L219.734 49.1249L219.146 48.1874L216.347 50.2759C216.108 50.4478 216.046 50.802 216.208 51.0624ZM216.643 52.3124C216.179 52.3124 215.73 52.0728 215.449 51.6249C215.004 50.9113 215.172 49.9322 215.826 49.4426L219.007 47.078C219.108 46.9999 219.232 46.9738 219.351 46.9947C219.471 47.0207 219.576 47.0936 219.648 47.2082L220.756 48.9738C220.899 49.203 220.842 49.5103 220.632 49.6666L217.45 52.0363C217.207 52.2238 216.92 52.3124 216.643 52.3124Z" fill="black"/>
<path d="M218.271 49.823L218.013 49.4168C217.564 48.6928 217.731 47.7084 218.395 47.2136L255.871 19.3022C256.53 18.8074 257.438 18.9949 257.887 19.7136L258.145 20.1251C258.599 20.8491 258.427 21.8386 257.763 22.3282L220.292 50.2397C219.628 50.7345 218.725 50.547 218.271 49.823Z" fill="white"/>
<path d="M256.688 19.526C256.497 19.526 256.301 19.5885 256.129 19.7187L218.653 47.6249C218.434 47.7916 218.29 48.0364 218.238 48.3177C218.19 48.6041 218.247 48.8906 218.396 49.1302L218.653 49.5416C218.959 50.0364 219.58 50.1614 220.034 49.8229L257.505 21.9166C257.959 21.5781 258.073 20.901 257.768 20.4062L257.51 19.9999C257.319 19.6927 257.003 19.526 256.688 19.526ZM219.475 51.0156C218.864 51.0156 218.262 50.6979 217.894 50.1093L217.636 49.6979C217.039 48.7447 217.263 47.4479 218.138 46.7968L255.609 18.8906C256.483 18.2395 257.672 18.4843 258.269 19.4322L258.527 19.8437C259.12 20.7968 258.895 22.0937 258.026 22.7447L220.55 50.651C220.225 50.8958 219.848 51.0156 219.475 51.0156Z" fill="black"/>
<path d="M244.837 27.5154L244.756 22.1977C244.722 20.0988 245.663 18.1248 247.249 16.9425L254.367 11.6404C254.625 11.4477 254.979 11.6456 254.983 11.9894L255.108 19.8696L244.837 27.5154Z" fill="#A82223"/>
<path d="M254.524 12.1304L247.507 17.3544C246.04 18.4481 245.185 20.2554 245.214 22.1877L245.286 26.5783L254.639 19.6096L254.524 12.1304ZM244.837 28.021C244.765 28.021 244.693 28.0002 244.626 27.9638C244.478 27.8804 244.383 27.7138 244.378 27.5263L244.297 22.2085C244.263 19.9325 245.266 17.8075 246.991 16.5263L254.104 11.2294C254.367 11.0315 254.701 11.0106 254.978 11.1669C255.26 11.3283 255.437 11.6408 255.441 11.9794L255.566 19.8648C255.566 20.0315 255.489 20.1929 255.365 20.2867L245.099 27.9325C245.023 27.9898 244.932 28.021 244.837 28.021Z" fill="black"/>
<path d="M246.737 30.5415L251.252 32.5623C253.033 33.3592 255.059 33.1248 256.65 31.9425L263.763 26.6405C264.021 26.4478 263.982 26.0207 263.691 25.8905L256.998 22.9009L246.737 30.5415Z" fill="#A82223"/>
<path d="M247.703 30.4325L251.429 32.0992C253.072 32.8335 254.921 32.62 256.387 31.5262L263.405 26.3023L257.056 23.4637L247.703 30.4325ZM253.426 33.5315C252.633 33.5315 251.835 33.3648 251.08 33.0262L246.561 31.0054C246.403 30.9377 246.294 30.7815 246.279 30.5992C246.26 30.4117 246.337 30.2346 246.475 30.1304L256.741 22.4846C256.87 22.3908 257.032 22.37 257.176 22.4377L263.868 25.4273C264.16 25.5575 264.36 25.8492 264.394 26.1877C264.427 26.5315 264.284 26.8596 264.026 27.0575L256.908 32.3596C255.862 33.1356 254.649 33.5315 253.426 33.5315Z" fill="black"/>
<path d="M261.026 28.1718C260.968 28.1718 260.911 28.1614 260.859 28.1354L255.398 25.8229C255.164 25.7187 255.045 25.4323 255.14 25.1718C255.231 24.9114 255.499 24.7864 255.733 24.8854L261.193 27.2031C261.427 27.302 261.546 27.5937 261.456 27.8541C261.384 28.052 261.207 28.1718 261.026 28.1718Z" fill="black"/>
<path d="M258.293 30.2085C258.236 30.2085 258.183 30.198 258.126 30.172L252.666 27.8595C252.432 27.7553 252.313 27.4637 252.408 27.2085C252.499 26.948 252.766 26.823 253 26.922L258.461 29.2397C258.695 29.3387 258.814 29.6303 258.723 29.8855C258.652 30.0835 258.48 30.2085 258.293 30.2085Z" fill="black"/>
<path d="M244.479 31.6146C244.335 31.6146 244.187 31.5417 244.101 31.3958L243.151 29.8854C243.007 29.6563 243.06 29.3438 243.275 29.1875C243.48 29.0313 243.772 29.0886 243.91 29.3177L244.856 30.8333C245.004 31.0625 244.952 31.375 244.741 31.5261C244.66 31.5886 244.569 31.6146 244.479 31.6146Z" fill="black"/>
<path d="M246.083 30.4217C245.935 30.4217 245.792 30.3436 245.706 30.203L244.755 28.6926C244.612 28.4634 244.665 28.1509 244.875 27.9946C245.085 27.8384 245.372 27.8957 245.515 28.1249L246.461 29.6405C246.609 29.8644 246.552 30.1769 246.341 30.3332C246.265 30.3957 246.174 30.4217 246.083 30.4217Z" fill="black"/>
<path d="M247.688 29.224C247.545 29.224 247.397 29.1511 247.311 29.0052L246.36 27.4948C246.222 27.2656 246.274 26.9531 246.48 26.7969C246.69 26.6406 246.977 26.6979 247.125 26.9271L248.071 28.4427C248.214 28.6719 248.161 28.9844 247.946 29.1354C247.87 29.1979 247.779 29.224 247.688 29.224Z" fill="black"/>
<path d="M157.894 260.265C153.519 258.333 151.412 252.901 153.184 248.13C154.957 243.359 159.939 241.062 164.315 242.995C168.691 244.927 170.797 250.359 169.025 255.13C167.253 259.896 162.27 262.198 157.894 260.265ZM176.396 260.338L177.643 256.984L174.667 254.729C174.829 253.896 174.925 253.057 174.953 252.229L178.345 250.833L177.886 247.25L174.27 246.922C174.026 246.125 173.726 245.349 173.367 244.604L175.67 241.547L173.63 238.687L170.353 240.375C169.784 239.818 169.163 239.312 168.504 238.859L169.092 234.958L166.015 233.599L163.947 236.844C163.183 236.667 162.418 236.562 161.654 236.531L160.379 232.838L157.087 233.338L156.786 237.276C156.055 237.536 155.344 237.864 154.66 238.26L151.856 235.75L149.239 237.974L150.781 241.547C150.27 242.167 149.807 242.844 149.391 243.562L145.813 242.922L144.567 246.276L147.543 248.531C147.385 249.364 147.285 250.198 147.256 251.031L143.869 252.422L144.328 256.01L147.939 256.338C148.183 257.135 148.484 257.911 148.842 258.656L146.539 261.713L148.584 264.568L151.856 262.885C152.43 263.443 153.046 263.948 153.705 264.401L153.117 268.302L156.194 269.661L158.262 266.417C159.027 266.588 159.796 266.698 160.555 266.729L161.836 270.422L165.122 269.922L165.423 265.984C166.154 265.719 166.866 265.39 167.549 265L170.353 267.51L172.971 265.281L171.428 261.713C171.939 261.088 172.402 260.417 172.818 259.698L176.396 260.338Z" fill="#A82223"/>
<path d="M160.479 241.172C157.284 241.172 154.25 243.255 152.975 246.682C151.303 251.182 153.299 256.333 157.432 258.162C159.433 259.047 161.631 259.026 163.623 258.109C165.61 257.188 167.153 255.484 167.965 253.302C168.772 251.12 168.758 248.724 167.917 246.552C167.072 244.385 165.51 242.703 163.503 241.818C162.514 241.38 161.487 241.172 160.479 241.172ZM160.47 259.813C159.323 259.813 158.182 259.573 157.088 259.089C152.483 257.057 150.257 251.323 152.12 246.302C153.987 241.287 159.252 238.859 163.852 240.891C166.083 241.875 167.826 243.745 168.763 246.162C169.699 248.578 169.718 251.245 168.815 253.677C167.912 256.109 166.193 258.01 163.981 259.031C162.849 259.552 161.659 259.813 160.47 259.813ZM157.627 264.276C157.656 264.276 157.69 264.276 157.723 264.287C158.459 264.453 159.204 264.557 159.94 264.589C160.121 264.594 160.288 264.724 160.35 264.912L161.497 268.229L164.057 267.844L164.33 264.302C164.344 264.104 164.468 263.932 164.645 263.87C165.352 263.615 166.04 263.297 166.699 262.917C166.866 262.823 167.062 262.844 167.205 262.974L169.728 265.224L171.763 263.495L170.377 260.287C170.296 260.104 170.33 259.885 170.449 259.74C170.941 259.141 171.395 258.484 171.796 257.792C171.892 257.62 172.078 257.531 172.259 257.563L175.474 258.141L176.444 255.526L173.769 253.5C173.616 253.385 173.54 253.182 173.578 252.984C173.736 252.182 173.831 251.37 173.86 250.568C173.865 250.37 173.984 250.188 174.156 250.12L177.199 248.865L176.841 246.078L173.597 245.781C173.411 245.766 173.253 245.63 173.196 245.438C172.962 244.667 172.67 243.911 172.326 243.198C172.24 243.016 172.259 242.802 172.379 242.646L174.443 239.896L172.857 237.672L169.914 239.188C169.747 239.271 169.546 239.24 169.408 239.104C168.863 238.573 168.261 238.078 167.621 237.641C167.468 237.531 167.382 237.333 167.416 237.135L167.946 233.63L165.548 232.573L163.689 235.49C163.584 235.656 163.398 235.734 163.217 235.693C162.476 235.526 161.731 235.422 161 235.391C160.814 235.385 160.651 235.255 160.589 235.068L159.438 231.75L156.882 232.135L156.61 235.677C156.591 235.875 156.471 236.052 156.295 236.115C155.588 236.365 154.895 236.688 154.236 237.063C154.073 237.156 153.877 237.135 153.734 237.005L151.212 234.755L149.172 236.484L150.562 239.693C150.639 239.875 150.61 240.094 150.486 240.24C149.999 240.839 149.545 241.495 149.143 242.193C149.043 242.359 148.862 242.448 148.68 242.417L145.465 241.839L144.495 244.453L147.171 246.479C147.323 246.594 147.395 246.797 147.357 246.995C147.199 247.802 147.108 248.615 147.08 249.412C147.07 249.615 146.956 249.792 146.784 249.859L143.741 251.115L144.094 253.901L147.343 254.198C147.524 254.214 147.682 254.349 147.739 254.542C147.973 255.313 148.265 256.068 148.613 256.787C148.699 256.964 148.68 257.177 148.561 257.333L146.497 260.083L148.083 262.307L151.026 260.792C151.193 260.708 151.389 260.74 151.527 260.875C152.077 261.406 152.674 261.901 153.314 262.339C153.471 262.448 153.553 262.646 153.524 262.844L152.994 266.349L155.387 267.406L157.25 264.49C157.336 264.354 157.475 264.276 157.627 264.276ZM161.196 269.287C161.01 269.287 160.838 269.156 160.766 268.958L159.596 265.573C159.013 265.531 158.42 265.453 157.833 265.333L155.936 268.307C155.812 268.5 155.583 268.573 155.387 268.49L152.311 267.13C152.11 267.042 151.991 266.813 152.029 266.583L152.569 263.005C152.067 262.646 151.589 262.255 151.145 261.839L148.145 263.38C147.949 263.484 147.715 263.422 147.581 263.234L145.542 260.385C145.408 260.198 145.413 259.938 145.551 259.755L147.658 256.953C147.395 256.375 147.161 255.781 146.965 255.172L143.65 254.87C143.435 254.849 143.263 254.672 143.234 254.438L142.776 250.854C142.747 250.62 142.866 250.396 143.067 250.318L146.177 249.037C146.21 248.401 146.287 247.755 146.397 247.115L143.669 245.047C143.492 244.912 143.425 244.661 143.502 244.448L144.749 241.094C144.83 240.875 145.04 240.75 145.25 240.787L148.532 241.375C148.862 240.828 149.22 240.313 149.597 239.823L148.183 236.552C148.093 236.339 148.15 236.083 148.317 235.938L150.935 233.719C151.107 233.568 151.346 233.573 151.513 233.724L154.083 236.021C154.613 235.734 155.158 235.484 155.717 235.266L155.994 231.651C156.013 231.422 156.175 231.229 156.39 231.198L159.677 230.698C159.887 230.667 160.097 230.797 160.169 231.021L161.339 234.406C161.927 234.448 162.519 234.526 163.107 234.646L165.003 231.672C165.123 231.479 165.352 231.406 165.553 231.495L168.629 232.849C168.83 232.938 168.944 233.167 168.911 233.401L168.371 236.974C168.873 237.333 169.345 237.724 169.79 238.141L172.794 236.599C172.99 236.495 173.224 236.557 173.353 236.745L175.393 239.594C175.527 239.781 175.527 240.042 175.388 240.224L173.282 243.026C173.544 243.604 173.774 244.198 173.97 244.813L177.285 245.109C177.5 245.13 177.672 245.307 177.705 245.542L178.164 249.125C178.193 249.359 178.068 249.583 177.868 249.667L174.763 250.943C174.724 251.578 174.653 252.224 174.538 252.865L177.271 254.932C177.447 255.068 177.514 255.318 177.433 255.531L176.186 258.885C176.105 259.104 175.895 259.229 175.685 259.193L172.408 258.604C172.078 259.151 171.72 259.667 171.338 260.156L172.751 263.427C172.847 263.641 172.79 263.896 172.618 264.037L170 266.266C169.833 266.406 169.594 266.406 169.427 266.255L166.857 263.958C166.326 264.245 165.777 264.5 165.218 264.714L164.946 268.328C164.927 268.557 164.76 268.75 164.549 268.781L161.263 269.281C161.239 269.287 161.22 269.287 161.196 269.287Z" fill="black"/>
<path d="M207.508 267.771C200.023 264.463 196.416 255.172 199.445 247.01C202.478 238.849 211.005 234.911 218.491 238.219C225.976 241.526 229.588 250.823 226.554 258.984C223.521 267.146 214.994 271.078 207.508 267.771ZM239.171 267.901L241.301 262.161L236.204 258.302C236.481 256.875 236.648 255.443 236.696 254.021L242.495 251.635L241.712 245.5L235.526 244.937C235.115 243.573 234.599 242.245 233.987 240.969L237.919 235.739L234.427 230.854L228.823 233.734C227.849 232.781 226.788 231.917 225.661 231.14L226.669 224.463L221.405 222.14L217.865 227.693C216.556 227.396 215.247 227.213 213.938 227.156L211.75 220.838L206.128 221.693L205.612 228.432C204.356 228.885 203.137 229.443 201.972 230.114L197.171 225.823L192.695 229.63L195.332 235.745C194.458 236.807 193.665 237.958 192.953 239.193L186.829 238.094L184.698 243.833L189.795 247.693C189.518 249.114 189.351 250.547 189.303 251.974L183.504 254.354L184.287 260.489L190.474 261.052C190.884 262.417 191.4 263.745 192.012 265.021L188.08 270.255L191.572 275.135L197.176 272.255C198.15 273.208 199.211 274.073 200.338 274.854L199.33 281.526L204.594 283.854L208.134 278.297C209.443 278.599 210.752 278.776 212.061 278.833L214.249 285.156L219.871 284.302L220.387 277.557C221.644 277.109 222.862 276.547 224.027 275.88L228.828 280.167L233.304 276.359L230.667 270.25C231.537 269.187 232.335 268.031 233.046 266.802L239.171 267.901Z" fill="#A82223"/>
<path d="M206.591 264.5C210.098 266.052 213.948 266.021 217.431 264.412C220.918 262.802 223.617 259.813 225.036 255.99C227.969 248.099 224.467 239.078 217.23 235.88C213.724 234.328 209.873 234.359 206.386 235.969C202.904 237.578 200.205 240.568 198.781 244.391C197.362 248.214 197.391 252.412 198.867 256.208C200.343 260.01 203.085 262.953 206.591 264.5ZM211.889 266.635C210.007 266.635 208.096 266.25 206.243 265.432C202.512 263.781 199.588 260.646 198.017 256.599C196.45 252.557 196.416 248.083 197.931 244.016C199.445 239.943 202.321 236.76 206.033 235.047C209.74 233.333 213.838 233.302 217.574 234.948C221.309 236.599 224.233 239.734 225.8 243.781C227.371 247.823 227.4 252.297 225.891 256.365C223.516 262.755 217.856 266.635 211.889 266.635ZM207.045 274.99C207.074 274.99 207.107 274.995 207.141 275C208.421 275.297 209.72 275.474 210.991 275.526C211.173 275.537 211.335 275.662 211.402 275.849L213.456 281.797L218.357 281.052L218.84 274.708C218.854 274.51 218.978 274.339 219.155 274.276C220.383 273.839 221.582 273.281 222.723 272.63C222.891 272.537 223.086 272.557 223.23 272.682L227.744 276.719L231.647 273.406L229.158 267.656C229.082 267.474 229.11 267.26 229.235 267.109C230.08 266.073 230.868 264.938 231.566 263.724C231.666 263.557 231.848 263.469 232.029 263.5L237.79 264.531L239.648 259.537L234.852 255.906C234.699 255.792 234.628 255.589 234.666 255.391C234.933 253.99 235.096 252.578 235.148 251.193C235.158 250.995 235.273 250.813 235.445 250.745L240.9 248.5L240.217 243.162L234.398 242.635C234.217 242.615 234.059 242.479 234.002 242.292C233.601 240.953 233.09 239.646 232.488 238.396C232.402 238.219 232.426 238.005 232.54 237.849L236.242 232.927L233.204 228.672L227.93 231.38C227.763 231.469 227.563 231.438 227.424 231.302C226.478 230.375 225.432 229.521 224.324 228.755C224.171 228.651 224.085 228.448 224.114 228.25L225.064 221.974L220.483 219.948L217.153 225.177C217.048 225.339 216.862 225.422 216.681 225.38C215.4 225.083 214.101 224.906 212.83 224.854C212.644 224.844 212.482 224.719 212.419 224.531L210.361 218.583L205.464 219.328L204.977 225.672C204.962 225.87 204.838 226.042 204.666 226.104C203.439 226.547 202.24 227.099 201.093 227.75C200.931 227.844 200.735 227.823 200.592 227.693L196.072 223.662L192.174 226.974L194.658 232.724C194.74 232.906 194.706 233.12 194.587 233.271C193.736 234.307 192.953 235.443 192.251 236.651C192.155 236.823 191.974 236.912 191.787 236.88L186.031 235.849L184.173 240.844L188.964 244.474C189.117 244.589 189.194 244.792 189.155 244.99C188.883 246.385 188.721 247.797 188.673 249.188C188.663 249.385 188.549 249.568 188.372 249.635L182.917 251.875L183.6 257.219L189.423 257.745C189.604 257.766 189.762 257.901 189.819 258.089C190.221 259.427 190.727 260.734 191.329 261.984C191.415 262.162 191.396 262.38 191.276 262.531L187.579 267.453L190.617 271.708L195.891 269C196.058 268.912 196.254 268.943 196.393 269.078C197.343 270.005 198.385 270.859 199.493 271.62C199.65 271.729 199.732 271.927 199.703 272.13L198.757 278.406L203.338 280.432L206.668 275.203C206.754 275.068 206.897 274.99 207.045 274.99ZM213.155 282.854C212.969 282.854 212.792 282.724 212.725 282.526L210.647 276.516C209.525 276.448 208.383 276.292 207.251 276.047L203.883 281.333C203.763 281.526 203.534 281.604 203.334 281.51L198.069 279.188C197.869 279.099 197.754 278.87 197.787 278.641L198.743 272.292C197.778 271.609 196.861 270.854 196.01 270.047L190.674 272.787C190.483 272.885 190.249 272.828 190.116 272.641L186.624 267.755C186.495 267.573 186.495 267.313 186.633 267.13L190.373 262.151C189.858 261.047 189.409 259.891 189.045 258.719L183.16 258.182C182.945 258.167 182.773 257.984 182.745 257.75L181.956 251.62C181.928 251.385 182.047 251.162 182.253 251.078L187.765 248.813C187.827 247.589 187.966 246.344 188.19 245.109L183.346 241.443C183.17 241.307 183.098 241.057 183.179 240.839L185.315 235.099C185.396 234.88 185.606 234.755 185.816 234.792L191.639 235.839C192.265 234.781 192.958 233.776 193.698 232.854L191.186 227.042C191.095 226.828 191.147 226.573 191.319 226.432L195.8 222.62C195.967 222.479 196.206 222.479 196.373 222.63L200.935 226.714C201.953 226.146 203.013 225.662 204.088 225.255L204.58 218.844C204.595 218.609 204.762 218.422 204.972 218.391L210.599 217.531C210.81 217.5 211.02 217.635 211.096 217.854L213.174 223.865C214.297 223.932 215.438 224.089 216.571 224.333L219.938 219.047C220.058 218.854 220.287 218.781 220.488 218.87L225.752 221.193C225.948 221.281 226.067 221.51 226.034 221.74L225.074 228.089C226.039 228.771 226.961 229.526 227.811 230.333L233.142 227.594C233.338 227.495 233.567 227.557 233.701 227.74L237.193 232.625C237.327 232.807 237.322 233.068 237.188 233.25L233.443 238.229C233.959 239.333 234.408 240.49 234.776 241.662L240.661 242.198C240.876 242.219 241.048 242.396 241.077 242.625L241.86 248.76C241.894 248.995 241.769 249.219 241.569 249.297L236.051 251.568C235.994 252.792 235.851 254.037 235.626 255.271L240.475 258.943C240.652 259.073 240.718 259.323 240.637 259.542L238.502 265.281C238.425 265.5 238.215 265.62 238.005 265.589L232.182 264.542C231.551 265.599 230.863 266.599 230.123 267.526L232.636 273.339C232.727 273.552 232.669 273.802 232.502 273.948L228.021 277.755C227.849 277.901 227.61 277.901 227.448 277.75L222.881 273.672C221.864 274.234 220.808 274.719 219.733 275.125L219.241 281.537C219.222 281.771 219.059 281.958 218.845 281.99L213.217 282.844C213.198 282.849 213.179 282.854 213.155 282.854Z" fill="black"/>
<path d="M106.499 84.4273C107.779 76.7815 114.51 71.6773 121.532 73.0262C128.554 74.3752 133.212 81.6721 131.932 89.3231C130.651 96.9689 123.921 102.073 116.898 100.724C109.876 99.3752 105.219 92.0783 106.499 84.4273Z" fill="white"/>
<path d="M106.953 84.5209C106.355 88.0886 107.067 91.6824 108.964 94.6511C110.855 97.6199 113.703 99.599 116.98 100.229C123.744 101.531 130.245 96.599 131.478 89.2344C132.075 85.6667 131.358 82.0678 129.467 79.099C127.575 76.1355 124.728 74.1511 121.451 73.5209C114.687 72.2188 108.185 77.1563 106.953 84.5209ZM119.153 101.443C118.384 101.443 117.605 101.37 116.817 101.219C113.301 100.542 110.244 98.4115 108.209 95.224C106.174 92.0365 105.405 88.1719 106.045 84.3386C107.368 76.4324 114.352 71.1355 121.609 72.5313C125.129 73.2084 128.186 75.3386 130.221 78.5261C132.256 81.7136 133.026 85.5782 132.385 89.4115C131.206 96.4636 125.521 101.443 119.153 101.443Z" fill="black"/>
<path d="M127.083 81.4534L122.592 83.2555C122.358 83.3492 122.301 83.6773 122.483 83.8596L123.008 84.4013C123.147 84.5367 123.151 84.7659 123.027 84.9117L120.615 87.7398C120.491 87.8857 120.28 87.8961 120.147 87.7555L117.061 84.6305C116.922 84.4898 116.717 84.5002 116.588 84.6461L111.214 90.9169C111.085 91.0627 111.094 91.2919 111.228 91.4273L112.355 92.5732C112.489 92.7086 112.699 92.6982 112.828 92.5523L116.702 88.0471C116.827 87.9013 117.037 87.8909 117.171 88.0263L120.257 91.1565C120.39 91.2919 120.6 91.2867 120.729 91.1357L124.637 86.5523C124.761 86.4065 124.976 86.3961 125.11 86.5367L125.678 87.1148C125.865 87.3023 126.161 87.2138 126.228 86.9482L127.518 81.8909C127.589 81.6096 127.336 81.3544 127.083 81.4534Z" fill="#A82223"/>
<path d="M79.2314 267.161L79.9528 274.635L84.5865 275.229V266.37L79.2314 267.161Z" fill="white"/>
<path d="M80.373 274.188L84.1277 274.667V266.943L79.7376 267.594L80.373 274.188ZM84.5863 275.734C84.572 275.734 84.5529 275.734 84.5338 275.729L79.9 275.136C79.6851 275.109 79.5179 274.922 79.494 274.693L78.7727 267.214C78.7488 266.948 78.9255 266.703 79.1692 266.667L84.5242 265.87C84.658 265.854 84.7917 265.896 84.892 265.99C84.9876 266.083 85.0449 266.224 85.0449 266.37V275.229C85.0449 275.375 84.9923 275.511 84.892 275.604C84.806 275.688 84.7009 275.734 84.5863 275.734Z" fill="black"/>
<path d="M85.3172 288.245C83.3873 288.542 80.2153 288.802 76.4988 288.24C75.2807 288.057 74.4734 286.766 74.7648 285.463C75.5864 281.833 76.9956 274.953 79.4176 271.76L80.0195 273.49L80.8507 271.865C80.9653 271.641 81.166 271.49 81.4 271.458L83.2201 271.203C83.6022 271.151 83.9557 271.427 84.0322 271.838L84.3236 273.338L84.9541 271.365L87.0751 285.713C87.2232 286.937 86.4398 288.073 85.3172 288.245Z" fill="#A82223"/>
<path d="M79.2838 272.797C77.3778 275.891 76.1453 281.401 75.3905 284.797L75.2138 285.583C75.1039 286.073 75.1851 286.568 75.4431 286.984C75.7011 287.396 76.1071 287.672 76.5609 287.745C80.1962 288.292 83.2917 288.047 85.2551 287.745C86.1197 287.615 86.7312 286.734 86.6165 285.781L84.7917 273.396L84.7583 273.505C84.6866 273.714 84.4955 273.854 84.2901 273.839C84.0847 273.823 83.9127 273.662 83.8698 273.438L83.5831 271.938C83.5545 271.787 83.4207 271.682 83.2774 271.703L81.4574 271.953C81.3714 271.964 81.2949 272.021 81.2519 272.109L80.4207 273.734C80.3348 273.906 80.1628 274.005 79.986 273.99C79.8045 273.979 79.6516 273.854 79.5895 273.667L79.2838 272.797ZM80.9367 289.073C79.5704 289.073 78.0561 288.979 76.4367 288.734C75.7249 288.63 75.0848 288.198 74.6835 287.547C74.2823 286.901 74.1485 286.099 74.3205 285.344L74.4925 284.557C75.3332 280.797 76.7377 274.505 79.0641 271.443C79.1692 271.302 79.3316 271.234 79.494 271.266C79.6516 271.297 79.7902 271.417 79.8475 271.583L80.0959 272.302L80.4494 271.62C80.6309 271.255 80.9653 271.011 81.3427 270.958L83.1628 270.708C83.7026 270.636 84.2233 270.979 84.4239 271.516L84.5242 271.203C84.5911 270.984 84.7917 270.849 84.9971 270.865C85.2073 270.886 85.3793 271.063 85.4127 271.287L87.529 285.636C87.7105 287.146 86.7455 288.531 85.3793 288.74C84.2376 288.917 82.7185 289.073 80.9367 289.073Z" fill="black"/>
<path d="M79.9434 286.667C78.6966 286.667 77.3447 286.547 75.9976 286.214C75.7492 286.151 75.5963 285.88 75.6536 285.609C75.7062 285.339 75.9546 285.172 76.203 285.234C80.6982 286.354 85.4035 284.911 85.4513 284.896C85.6949 284.823 85.9481 284.979 86.0198 285.245C86.0866 285.51 85.9481 285.786 85.7045 285.865C85.5612 285.906 83.0771 286.667 79.9434 286.667Z" fill="black"/>
<path d="M78.8398 281.11C78.5914 281.11 78.3907 280.896 78.3812 280.625C78.3716 280.349 78.5723 280.115 78.8254 280.11L83.1725 279.948C83.4305 279.938 83.6359 280.156 83.6455 280.432C83.655 280.714 83.4544 280.943 83.2012 280.953L78.8541 281.11C78.8493 281.11 78.8446 281.11 78.8398 281.11Z" fill="black"/>
<path d="M100.943 263.182L101.641 274.094H107.216L107.478 263.182H100.943Z" fill="white"/>
<path d="M102.071 273.588H106.771L107.005 263.687H101.435L102.071 273.588ZM107.215 274.594H101.641C101.397 274.594 101.196 274.39 101.182 274.125L100.485 263.219C100.475 263.078 100.523 262.943 100.609 262.844C100.695 262.739 100.819 262.682 100.943 262.682H107.478C107.602 262.682 107.722 262.734 107.808 262.833C107.894 262.927 107.942 263.062 107.937 263.198L107.679 274.104C107.669 274.375 107.469 274.594 107.215 274.594Z" fill="black"/>
<path d="M100.184 280.25C100.169 281.281 100.814 282.187 101.736 282.422C104.942 283.234 112.169 285.047 114.228 285.38C116.903 285.818 120.19 284.922 121.604 283.219C123.013 281.51 118.437 277.437 116.268 275.958C113.039 273.755 109.938 269.406 108.639 269.208C107.34 269.016 104.913 273.125 104.913 273.125L100.943 271.312C100.943 271.312 100.255 275.016 100.184 280.25Z" fill="#A82223"/>
<path d="M101.296 272.015C101.105 273.265 100.694 276.344 100.642 280.255C100.632 281.047 101.134 281.755 101.841 281.932C104.903 282.708 112.245 284.552 114.295 284.885C116.874 285.302 119.998 284.406 121.259 282.88C121.341 282.786 121.441 282.62 121.398 282.297C121.193 280.693 118.14 277.828 116.024 276.38C114.371 275.26 112.804 273.635 111.424 272.208C110.272 271.015 109.078 269.786 108.577 269.708C107.965 269.604 106.393 271.542 105.299 273.396C105.175 273.604 104.941 273.682 104.731 273.588L101.296 272.015ZM115.618 285.989C115.126 285.989 114.634 285.953 114.161 285.875C112.15 285.552 105.448 283.88 101.631 282.911C100.508 282.625 99.7056 281.5 99.7199 280.245C99.7916 275.021 100.489 271.25 100.494 271.208C100.522 271.062 100.608 270.937 100.728 270.864C100.852 270.797 100.995 270.792 101.124 270.849L104.736 272.505C105.524 271.224 107.363 268.521 108.701 268.713C109.46 268.828 110.42 269.792 112.054 271.479C113.406 272.875 114.939 274.463 116.511 275.531C117.916 276.489 122.005 279.771 122.31 282.161C122.377 282.698 122.253 283.182 121.943 283.552C120.715 285.036 118.126 285.989 115.618 285.989Z" fill="black"/>
<path d="M115.575 283.985C109.713 283.985 101.908 280.547 101.463 280.349C101.229 280.245 101.12 279.948 101.215 279.693C101.311 279.438 101.578 279.313 101.812 279.422C101.956 279.485 115.967 285.656 120.032 281.651C120.218 281.469 120.509 281.485 120.681 281.688C120.853 281.896 120.839 282.214 120.648 282.396C119.473 283.552 117.643 283.985 115.575 283.985Z" fill="black"/>
<path d="M109.389 277.385C109.265 277.385 109.141 277.328 109.045 277.219C108.878 277.01 108.892 276.693 109.079 276.51L111.916 273.719C112.107 273.536 112.399 273.547 112.566 273.755C112.738 273.963 112.723 274.281 112.532 274.463L109.695 277.255C109.609 277.338 109.499 277.385 109.389 277.385Z" fill="black"/>
<path d="M77.6503 192.073C77.6503 192.073 75.921 226.172 75.0181 237.943C74.1153 249.713 77.1344 268.635 77.1344 268.635L85.7425 268.146C85.7425 268.146 86.3349 245.135 86.9702 238.75C86.9702 238.75 90.6103 230.088 91.6851 222.364C92.7648 214.635 96.4383 202.437 96.4383 202.437C96.4383 202.437 99.4191 263.333 99.7058 268.12C99.7058 268.12 106.456 268.448 108.878 266.786C108.878 266.786 113.167 244.583 112.551 232.5C111.935 220.417 112.613 190.401 112.613 190.401L77.6503 192.073Z" fill="black"/>
<path d="M85.3895 239.25H82.7573C82.4994 239.25 82.2939 239.021 82.2939 238.745C82.2939 238.469 82.4994 238.245 82.7573 238.245H85.3895C85.6426 238.245 85.848 238.469 85.848 238.745C85.848 239.021 85.6426 239.25 85.3895 239.25Z" fill="white"/>
<path d="M104.134 256.958C104.134 256.958 104.13 256.958 104.125 256.958C103.872 256.953 103.671 256.724 103.676 256.448C103.771 250.76 109.466 240.62 109.704 240.193C109.838 239.958 110.125 239.885 110.34 240.026C110.555 240.172 110.622 240.484 110.488 240.719C110.431 240.823 104.684 251.052 104.593 256.469C104.588 256.74 104.383 256.958 104.134 256.958Z" fill="white"/>
<path d="M115.336 137.536C115.962 137.479 119.038 144.349 128.669 144.062C138.294 143.776 146.024 132.026 146.024 132.026C146.024 132.026 149.349 125.917 151.871 123.703C154.393 121.495 154.79 121.203 154.79 121.203C154.79 121.203 155.583 122.354 154.79 123.703C153.997 125.057 151.813 127.589 151.813 127.589C151.813 127.589 154.221 129.031 153.137 132.026C151.885 135.479 148.369 135.203 148.369 135.203C148.369 135.203 141.232 169.661 111.729 153.286L115.336 137.536Z" fill="white"/>
<path d="M112.265 153.021C120.801 157.672 128.239 158.443 134.373 155.307C144.71 150.021 147.892 135.24 147.92 135.088C147.973 134.849 148.169 134.677 148.403 134.703C148.532 134.713 151.603 134.901 152.707 131.844C153.634 129.286 151.675 128.078 151.594 128.026C151.47 127.953 151.379 127.818 151.36 127.667C151.336 127.516 151.379 127.359 151.479 127.245C151.503 127.219 153.643 124.734 154.403 123.432C154.742 122.859 154.713 122.328 154.618 121.974C154.221 122.302 153.485 122.932 152.157 124.099C149.726 126.224 146.449 132.224 146.415 132.286C146.411 132.297 146.401 132.307 146.396 132.318C146.076 132.807 138.424 144.271 128.683 144.562C128.478 144.573 128.272 144.573 128.072 144.573C120.643 144.573 117.218 140.406 115.733 138.599C115.69 138.547 115.647 138.495 115.604 138.443L112.265 153.021ZM126.357 158.203C121.847 158.203 116.884 156.713 111.519 153.734C111.328 153.625 111.228 153.391 111.28 153.161L114.892 137.411C114.94 137.203 115.107 137.052 115.303 137.036C115.656 137 115.895 137.292 116.421 137.932C117.858 139.682 121.231 143.766 128.654 143.562C137.779 143.286 145.307 132.245 145.637 131.75C145.885 131.297 149.071 125.516 151.579 123.312C154.092 121.115 154.512 120.802 154.532 120.786C154.732 120.641 155.009 120.687 155.157 120.901C155.196 120.958 156.127 122.349 155.177 123.974C154.56 125.026 153.175 126.713 152.511 127.505C153.409 128.302 154.388 129.937 153.562 132.213C152.463 135.25 149.745 135.656 148.728 135.703C148.135 138.13 144.548 151.208 134.769 156.213C132.175 157.542 129.366 158.203 126.357 158.203Z" fill="black"/>
<path d="M67.6191 153.287C67.6191 153.287 70.5092 132.953 80.7177 127.953C90.9214 122.948 104.732 123.646 108.539 126.141C112.351 128.641 122.278 139.938 122.278 139.938L113.502 153.287C113.502 153.287 115.509 189.224 113.923 198.708C113.923 198.708 104.168 199.953 100.026 198.177C95.8895 196.396 82.2846 193.906 75.7783 197.167L76.963 151.667L67.6191 153.287Z" fill="#A82223"/>
<path d="M84.6157 195.083C90.821 195.083 97.5136 196.557 100.198 197.708C103.752 199.234 111.778 198.448 113.531 198.255C114.978 188.401 113.068 153.672 113.044 153.318C113.039 153.203 113.068 153.089 113.13 152.995L121.676 139.984C120.08 138.177 111.673 128.781 108.305 126.573C104.751 124.24 91.0599 123.432 80.9039 128.406C72.0808 132.734 68.799 149.12 68.1827 152.682L76.8865 151.172C77.025 151.146 77.1635 151.193 77.2638 151.292C77.3689 151.391 77.4263 151.531 77.4215 151.682L76.2607 196.401C78.5536 195.448 81.5249 195.083 84.6157 195.083ZM107.049 199.641C104.431 199.641 101.66 199.411 99.8591 198.641C95.598 196.812 82.1507 194.526 75.9693 197.62C75.826 197.698 75.6588 197.682 75.525 197.583C75.3912 197.49 75.3148 197.328 75.3196 197.151L76.4852 152.255L67.6907 153.781C67.5474 153.807 67.3993 153.755 67.2942 153.641C67.1891 153.526 67.1413 153.37 67.1652 153.208C67.2846 152.37 70.2082 132.552 80.5265 127.495C90.6395 122.536 104.636 122.995 108.778 125.714C112.595 128.214 122.201 139.125 122.607 139.589C122.76 139.76 122.779 140.031 122.65 140.229L113.97 153.432C114.142 156.49 115.91 189.604 114.376 198.802C114.338 199.016 114.176 199.182 113.975 199.208C113.746 199.24 110.541 199.641 107.049 199.641Z" fill="black"/>
<path d="M84.7447 188.291C84.525 188.291 84.3291 188.12 84.2909 187.875C84.2479 187.604 84.4151 187.344 84.6635 187.297C100.06 184.328 104.56 172.724 104.603 172.609C104.698 172.354 104.966 172.229 105.2 172.333C105.439 172.437 105.549 172.729 105.458 172.984C105.41 173.109 100.743 185.213 84.8259 188.281C84.7973 188.291 84.7686 188.291 84.7447 188.291Z" fill="black"/>
<path d="M112.766 167.495H92.9033L99.123 143.307H118.986L112.766 167.495Z" fill="black"/>
<path d="M69.3717 153.364L79.4225 148.463C79.4225 148.463 78.0085 167.036 98.3443 158.458C98.3443 158.458 97.5943 156.073 97.6994 153.286C97.8093 150.5 99.3379 153.198 99.5529 155.458C99.7631 157.729 104.54 156.807 107.411 155.911C110.282 155.021 114.046 155.604 107.411 159.599C100.776 163.588 99.3188 161.807 99.3188 161.807C99.3188 161.807 90.8444 174.739 80.3015 171.989C67.3319 168.614 69.3717 153.364 69.3717 153.364Z" fill="white"/>
<path d="M69.7966 153.703C69.7106 154.635 69.51 157.849 70.4224 161.302C71.8507 166.719 75.2138 170.151 80.4064 171.505C90.5384 174.146 98.8648 161.64 98.946 161.515C99.0272 161.39 99.1562 161.318 99.2947 161.307C99.4332 161.302 99.5718 161.359 99.6625 161.474C99.6673 161.474 101.153 162.786 107.186 159.156C110.683 157.057 110.645 156.276 110.645 156.265C110.502 156.031 109.178 155.885 107.535 156.396C106.169 156.823 101.573 158.109 99.8202 156.812C99.395 156.5 99.1466 156.052 99.0941 155.51C98.9842 154.349 98.5208 153.203 98.2151 152.765C98.1912 152.88 98.1721 153.057 98.1626 153.307C98.0622 155.969 98.774 158.276 98.7788 158.297C98.86 158.552 98.7406 158.833 98.5113 158.927C91.4938 161.885 86.22 161.989 82.8379 159.229C79.2981 156.344 78.9351 151.245 78.9398 149.25L69.7966 153.703ZM83.3156 172.88C82.2981 172.88 81.2567 172.755 80.1914 172.479C66.9686 169.031 68.8938 153.448 68.9129 153.292C68.9368 153.12 69.0371 152.979 69.1804 152.906L79.236 148.005C79.3841 147.932 79.5561 147.953 79.6898 148.057C79.8188 148.156 79.8952 148.328 79.8809 148.505C79.8761 148.573 79.4271 155.203 83.392 158.427C86.4398 160.911 91.2837 160.823 97.7804 158.156C97.5654 157.312 97.1594 155.411 97.2406 153.265C97.2549 152.859 97.3027 151.625 98.0957 151.599C98.1005 151.599 98.11 151.599 98.1148 151.599C99.1227 151.599 99.8823 154.068 100.006 155.411C100.03 155.651 100.135 155.833 100.336 155.984C101.397 156.765 104.588 156.271 107.282 155.432C108.533 155.047 111.022 154.64 111.495 155.896C111.887 156.917 110.693 158.198 107.631 160.036C102.543 163.099 100.307 162.864 99.4428 162.469C98.0861 164.401 91.661 172.88 83.3156 172.88Z" fill="black"/>
<path d="M96.2046 118.682C95.3352 119.552 93.6393 120.609 92.3065 119.88C91.3177 119.339 90.7683 117.927 90.8018 116.318C90.3432 116.359 89.7413 116.323 89.3161 115.912C88.6521 115.276 88.7763 114.104 88.805 113.333C88.9244 109.787 87.0327 109.245 87.4961 106.833C87.8591 104.943 89.2206 103.818 89.4786 103.604C90.7636 102.542 91.6378 102.886 93.797 102.266C97.4418 101.229 97.5565 99.5157 99.9546 99.5105C100.093 99.5053 103.361 99.547 104.469 102.005C105.367 104.005 104.316 106.438 103.227 107.714C101.818 109.37 100.805 108.552 99.3909 109.938C96.9068 112.37 98.7842 116.109 96.2046 118.682Z" fill="black"/>
<path d="M103.471 112.354L103.327 112.219C102.606 111.542 101.856 110.755 101.665 109.74C100.853 105.422 97.2223 103.854 97.0551 107.818C97.0121 108.818 93.6635 108.766 94.0599 109.818C95.0966 112.557 95.1204 111.818 93.6587 112.828C93.4915 112.839 93.3243 112.875 93.1714 112.953C92.4214 113.333 92.1539 114.448 92.5791 115.438C92.8323 116.037 93.2861 116.448 93.7685 116.599V120.927C93.7685 122.547 92.8705 124.011 91.4899 124.62L90.1523 125.219C90.1523 125.219 96.4007 129.667 102.74 124.781L101.894 124.37C100.404 123.641 99.4245 122.047 99.3768 120.271L99.3672 119.422C99.7924 119.464 100.208 119.432 100.59 119.313C102.362 118.75 102.95 116.521 102.649 113.75L103.37 113.328C103.71 113.13 103.762 112.625 103.471 112.354Z" fill="white"/>
<path d="M91.217 125.287C92.9654 126.214 97.2647 127.875 101.789 124.865L101.707 124.828C100.069 124.026 98.9701 122.245 98.9128 120.281L98.908 119.427C98.908 119.287 98.9605 119.151 99.0561 119.052C99.1516 118.958 99.2806 118.912 99.4096 118.922C99.7917 118.964 100.145 118.927 100.461 118.828C102.448 118.198 102.333 115.11 102.195 113.807C102.171 113.604 102.266 113.406 102.433 113.307L103.155 112.886C103.179 112.87 103.193 112.844 103.198 112.813C103.203 112.792 103.198 112.761 103.169 112.735L103.026 112.599C102.266 111.886 101.435 111.021 101.215 109.839C100.733 107.281 99.2615 105.964 98.4398 106.042C97.6707 106.11 97.537 107.323 97.5131 107.844C97.4797 108.682 96.5338 108.969 95.6166 109.25C95.2631 109.36 94.6851 109.537 94.5083 109.688C94.6469 110.052 94.7663 110.354 94.8666 110.604C95.3634 111.854 95.5306 112.276 94.5131 112.87C94.3507 112.964 94.1453 113.083 93.9017 113.25C93.8348 113.297 93.7536 113.328 93.6771 113.328C93.5625 113.333 93.4574 113.36 93.3666 113.406C92.8459 113.672 92.6788 114.49 92.994 115.224C93.1803 115.667 93.5195 116 93.8921 116.115C94.0927 116.177 94.2265 116.375 94.2265 116.599V120.927C94.2265 122.761 93.2233 124.391 91.666 125.083L91.217 125.287ZM96.3332 127.557C92.6596 127.557 89.9415 125.672 89.8985 125.641C89.7552 125.537 89.6788 125.36 89.6931 125.172C89.7074 124.985 89.8173 124.828 89.9797 124.755L91.3173 124.156C92.5259 123.62 93.3093 122.349 93.3093 120.927V116.943C92.8173 116.688 92.4112 116.235 92.1581 115.646C91.6326 114.412 91.9956 113 92.9749 112.5C93.1421 112.417 93.3189 112.36 93.51 112.339C93.7392 112.182 93.9256 112.073 94.0832 111.985C94.1692 111.932 94.2695 111.875 94.3268 111.833C94.2886 111.677 94.1596 111.349 94.0211 111.005C93.916 110.735 93.787 110.406 93.6342 110.011C93.5386 109.761 93.5434 109.505 93.6437 109.276C93.8873 108.74 94.5752 108.531 95.3682 108.287C95.7552 108.167 96.4669 107.948 96.5959 107.771C96.7058 105.37 97.9765 105.073 98.3634 105.042C98.4064 105.037 98.4542 105.037 98.4972 105.037C99.8443 105.037 101.569 106.745 102.113 109.641C102.281 110.511 102.983 111.235 103.628 111.839L103.771 111.974C104.019 112.208 104.148 112.563 104.11 112.922C104.077 113.281 103.881 113.599 103.589 113.771L103.14 114.031C103.403 117.13 102.524 119.219 100.718 119.792C100.441 119.88 100.14 119.932 99.8299 119.943L99.8347 120.266C99.8777 121.828 100.761 123.266 102.085 123.912L102.93 124.328C103.078 124.401 103.183 124.557 103.198 124.735C103.212 124.912 103.14 125.089 103.007 125.193C100.685 126.979 98.3634 127.557 96.3332 127.557Z" fill="black"/>
<path d="M99.3664 119.922C99.3426 119.922 99.3187 119.922 99.2996 119.917C96.6483 119.474 95.4493 117.261 95.4015 117.167C95.2773 116.927 95.349 116.62 95.5687 116.485C95.7932 116.344 96.0703 116.427 96.1993 116.667C96.2423 116.745 97.2359 118.557 99.4381 118.927C99.6865 118.969 99.8585 119.224 99.8203 119.5C99.7868 119.75 99.591 119.922 99.3664 119.922Z" fill="black"/>
<path d="M54.0713 111.599C51.1286 108.125 46.7577 107.396 43.4711 108.375C39.3103 109.614 37.2132 113.536 35.7323 116.302C33.1193 121.193 34.3852 122.969 32.3263 125.807C28.6862 130.838 19.8583 127.505 15.5637 131.37C5.23104 140.656 10.8631 156.005 20.0159 163.25C26.1257 168.078 34.4282 165.286 36.6877 164.526C43.5475 162.219 54.9073 157.698 56.0107 146.901C56.7464 139.646 49.9535 133.823 53.6031 127.776C54.5346 126.234 55.3037 125.818 55.9964 123.89C57.1142 120.76 57.3674 115.489 54.0713 111.599Z" fill="black"/>
<path d="M43.3368 112.453C44.8989 111.073 43.91 106.995 42.9069 104.797C42.5343 103.974 40.8575 100.287 38.6506 100.427C36.3862 100.578 34.2175 104.724 35.0248 108.005C36.0375 112.115 41.5024 114.073 43.3368 112.453Z" fill="black"/>
<path d="M32.7847 137.479C37.4948 135.802 44.6795 134.599 53.2638 137.578C56.3927 138.667 58.6379 141.672 59.0248 145.229L66.0184 189.13C66.3671 192.323 62.4548 195.427 59.6984 196.563C56.8179 197.755 52.466 198.88 46.2989 198.88C39.6923 198.88 31.7146 198.839 29.0347 197.557C28.9535 197.521 28.8723 197.479 28.7911 197.438C25.3421 195.688 23.3119 191.719 23.651 187.589L25.0746 181.135C26.6462 174.021 27.3723 166.714 27.2433 159.396L27.014 146.615C26.8373 142.505 29.1924 138.755 32.7847 137.479Z" fill="#A82223"/>
<path d="M65.808 156.344C65.808 156.344 60.2237 139.485 53.9658 137.865L57.1473 161.75L65.808 156.344Z" fill="#A82223"/>
<path d="M18.9217 166.182C16.5284 164.114 15.5253 160.682 16.3756 157.489C17.1447 154.614 18.1096 151.156 18.9552 148.656C21.8357 140.099 27.807 138.182 30.1334 137.578C30.4964 137.479 34.6381 136.885 34.6381 136.885L32.1445 163.073L21.5061 167.823L18.9217 166.182Z" fill="#A82223"/>
<path d="M26.4697 187.068C26.398 187.068 26.3216 187.047 26.2547 187.005C26.0302 186.88 25.9442 186.578 26.0636 186.328C28.2945 181.708 32.7897 178.531 39.0523 177.151C44.2593 176.005 49.5379 176.338 52.4757 176.969C56.6126 177.859 60.7352 180.755 60.912 180.875C61.1222 181.026 61.1842 181.338 61.0457 181.573C60.9072 181.802 60.6206 181.87 60.4104 181.719C60.3674 181.693 56.2544 178.802 52.299 177.953C46.0507 176.609 31.6097 177 26.8757 186.797C26.7945 186.969 26.6369 187.068 26.4697 187.068Z" fill="black"/>
<path d="M43.6954 170.114L71.1107 170.068C71.8081 170.068 72.41 169.552 72.5772 168.812L77.2301 147.724C77.4641 146.687 76.7428 145.682 75.7587 145.682L48.3434 145.729C47.646 145.729 47.0441 146.245 46.8769 146.979L42.2241 168.073C41.99 169.109 42.7113 170.114 43.6954 170.114Z" fill="#DD3627"/>
<path d="M75.7587 146.182L48.3434 146.229C47.8609 146.229 47.4405 146.588 47.3259 147.104L42.6731 168.187C42.5966 168.536 42.6635 168.896 42.8642 169.172C43.0648 169.453 43.3705 169.614 43.6954 169.614L71.1107 169.568C71.5931 169.568 72.0135 169.208 72.1282 168.693L76.781 147.609C76.8574 147.26 76.7905 146.901 76.5899 146.625C76.3893 146.344 76.0835 146.182 75.7587 146.182ZM43.6954 170.614C43.0839 170.614 42.5202 170.318 42.1428 169.792C41.7654 169.271 41.6317 168.599 41.7798 167.953L46.4278 146.864C46.6476 145.901 47.4358 145.229 48.3434 145.229L75.7587 145.182C76.3702 145.182 76.9338 145.479 77.3112 146.005C77.6886 146.526 77.8224 147.198 77.6743 147.844L73.0262 168.932C72.8065 169.896 72.0183 170.568 71.1107 170.573L43.6954 170.614Z" fill="black"/>
<path d="M62.1343 158.297C61.8621 159.568 60.7586 160.38 59.6742 160.099C58.585 159.823 57.9258 158.568 58.1981 157.292C58.4751 156.021 59.5739 155.214 60.663 155.49C61.7474 155.766 62.4066 157.026 62.1343 158.297Z" fill="white"/>
<path d="M75.6204 155.755L75.2717 157.271C75.1284 157.911 74.4787 158.245 73.9341 157.958L69.2956 155.563C68.6794 155.245 67.9437 155.578 67.7288 156.286C67.2941 157.724 67.6619 160.286 73.5663 162.896C77.1729 164.484 77.3019 160.167 76.7143 157.536C76.4516 156.365 75.6204 155.755 75.6204 155.755Z" fill="white"/>
<path d="M68.8031 155.943C68.7124 155.943 68.6216 155.963 68.5356 156.005C68.3589 156.088 68.2251 156.239 68.163 156.443C67.5611 158.448 69.5388 160.573 73.7378 162.427C74.6693 162.838 75.3668 162.838 75.811 162.422C76.6374 161.646 76.6613 159.437 76.2648 157.656C76.1836 157.281 76.026 156.974 75.8683 156.739L75.7203 157.391C75.6152 157.844 75.3333 158.213 74.9464 158.417C74.5642 158.609 74.12 158.609 73.733 158.411L69.0993 156.016C69.0038 155.969 68.9034 155.943 68.8031 155.943ZM74.9607 163.739C74.4926 163.739 73.9671 163.614 73.3938 163.359C67.3509 160.687 66.7395 157.953 67.2888 156.13C67.4321 155.656 67.7522 155.276 68.1726 155.078C68.5977 154.885 69.0754 154.896 69.491 155.109L74.1295 157.505C74.2633 157.578 74.4209 157.578 74.5547 157.505C74.6932 157.437 74.7887 157.307 74.827 157.146L75.1757 155.63C75.2139 155.469 75.319 155.344 75.4575 155.286C75.6008 155.224 75.7585 155.245 75.8827 155.338C75.9209 155.37 76.862 156.078 77.1581 157.417C77.5881 159.349 77.6549 162.01 76.4129 163.177C76.0164 163.552 75.5292 163.739 74.9607 163.739Z" fill="black"/>
<path d="M35.5979 149.286C35.5979 149.286 23.2828 156.854 20.7462 159.224C18.2048 161.599 15.4532 163.401 19.0408 168.573C22.0933 172.969 27.4674 169.036 36.945 154.219C37.3893 153.526 38.1154 153.094 38.8702 152.911C39.8208 152.677 41.2014 151.859 41.8367 149.14C41.8367 149.14 46.3271 149.838 46.7236 147.448L39.9785 146.281C39.0756 146.104 38.1489 146.427 37.5087 147.146L35.5979 149.286Z" fill="white"/>
<path d="M39.4966 146.735C38.8756 146.735 38.2785 147.005 37.839 147.495L35.9282 149.641C35.8947 149.672 35.8613 149.703 35.8231 149.724C35.6989 149.802 23.5223 157.292 21.043 159.604C20.8471 159.792 20.6465 159.969 20.4506 160.151C18.0765 162.313 16.3615 163.88 19.4093 168.271C20.1067 169.276 20.9092 169.766 21.8503 169.766C21.8694 169.766 21.8885 169.766 21.9076 169.766C25.0031 169.698 29.7945 164.521 36.5683 153.932C37.0412 153.188 37.8247 152.651 38.7705 152.422C39.6543 152.208 40.8246 151.438 41.3931 149.016C41.4504 148.771 41.6749 148.61 41.8995 148.646C41.9377 148.651 45.2052 149.11 46.0794 147.844L39.9074 146.776C39.7689 146.745 39.6304 146.735 39.4966 146.735ZM21.8503 170.771C20.6178 170.771 19.5478 170.13 18.6784 168.875C15.1004 163.719 17.5176 161.516 19.8583 159.38C20.0542 159.203 20.25 159.026 20.4459 158.844C22.9251 156.526 34.2849 149.521 35.312 148.886L37.1798 146.797C37.9298 145.958 39.0046 145.583 40.0603 145.787L46.7959 146.953C46.9201 146.974 47.03 147.052 47.0969 147.162C47.1733 147.271 47.1972 147.406 47.1781 147.542C46.7816 149.917 43.366 149.802 42.1765 149.688C41.4074 152.412 39.8549 153.182 38.9711 153.401C38.2498 153.578 37.667 153.969 37.3231 154.505C30.2722 165.526 25.3805 170.693 21.9267 170.766C21.8981 170.771 21.8742 170.771 21.8503 170.771Z" fill="black"/>
<path d="M48.2291 129.396C48.8931 129.76 49.6956 129.609 50.2163 129.036C50.8087 128.385 51.2864 127.698 51.6733 127L52.4233 127.021C52.6669 127.026 52.8675 126.818 52.8771 126.557L53.0061 123.354C53.5841 122.323 53.8182 121.453 53.8707 120.75C53.9615 119.563 52.987 117.422 52.0029 116.896C50.6701 116.188 48.2625 115.807 47.0061 117.865C46.4616 118.755 45.5874 119.385 45.0571 119.286C44.5555 119.188 44.3501 118.724 44.1017 118.24C43.6431 117.339 42.5014 116.495 41.4075 117.917C40.2944 119.354 41.0635 120.682 41.7562 121.786C42.0333 122.234 41.7323 123.474 41.6177 123.995L39.9935 131.552C39.5731 133.495 38.3024 135.083 36.5922 135.797L34.8486 136.526C34.8486 136.526 36.7738 142.885 44.4743 142.708C50.3548 142.568 49.9058 137.313 49.9058 137.313L49.1319 136.943C47.1112 135.969 46.003 133.573 46.4902 131.224L47.0109 128.729L48.2291 129.396Z" fill="white"/>
<path d="M35.4503 136.812C36.0379 138.208 38.2926 142.354 44.4645 142.208C46.2655 142.167 47.603 141.62 48.4486 140.589C49.318 139.521 49.4422 138.208 49.4517 137.641L48.9454 137.401C46.7288 136.333 45.5059 133.687 46.0409 131.115L46.5616 128.62C46.5903 128.469 46.6858 128.344 46.8148 128.276C46.939 128.214 47.0871 128.214 47.2161 128.281L48.4342 128.948C48.9215 129.214 49.5043 129.104 49.8912 128.682C50.4167 128.104 50.8848 127.453 51.2813 126.745C51.3673 126.589 51.5106 126.51 51.6826 126.5L52.4326 126.516L52.5472 123.333C52.552 123.25 52.5711 123.167 52.6141 123.094C53.087 122.25 53.3593 121.448 53.4119 120.714C53.4931 119.677 52.5711 117.76 51.802 117.349C50.775 116.802 48.5345 116.266 47.3881 118.146C46.8292 119.057 45.8021 119.937 44.9757 119.781C44.2926 119.646 43.9916 119.052 43.748 118.573L43.7002 118.484C43.5235 118.13 43.1604 117.703 42.7257 117.661C42.4009 117.625 42.0808 117.823 41.756 118.24C40.9056 119.344 41.3738 120.286 42.1333 121.505C42.4773 122.057 42.3005 123.031 42.0951 123.99L42.0665 124.109L40.4375 131.667C39.9837 133.776 38.6079 135.495 36.7544 136.266L35.4503 136.812ZM44.1588 143.214C36.4774 143.214 34.4328 136.75 34.4137 136.682C34.3372 136.427 34.4567 136.156 34.686 136.057L36.4248 135.328C37.9964 134.677 39.1573 133.219 39.5442 131.437L41.197 123.755C41.455 122.573 41.4359 122.187 41.3738 122.068C40.7432 121.057 39.6875 119.365 41.0537 117.594C41.7082 116.74 42.3722 116.615 42.8165 116.661C43.5999 116.745 44.2066 117.401 44.5075 117.995L44.5553 118.089C44.7894 118.552 44.904 118.745 45.1333 118.792C45.4056 118.849 46.1317 118.391 46.619 117.589C47.9231 115.458 50.4262 115.5 52.2033 116.448C53.3975 117.083 54.4294 119.474 54.3291 120.792C54.267 121.651 53.9708 122.568 53.4597 123.505L53.3354 126.578C53.3163 127.104 52.9103 127.521 52.4326 127.521C52.4278 127.521 52.423 127.521 52.4135 127.521L51.9262 127.51C51.5202 128.193 51.0568 128.823 50.5409 129.391C49.8769 130.12 48.8642 130.302 48.0234 129.844L47.326 129.464L46.939 131.333C46.4995 133.443 47.5027 135.609 49.318 136.484L50.0871 136.854C50.2399 136.927 50.345 137.083 50.3594 137.266C50.3689 137.359 50.5361 139.542 49.1364 141.255C48.1142 142.505 46.5473 143.161 44.4836 143.208C44.3738 143.214 44.2687 143.214 44.1588 143.214Z" fill="black"/>
<path d="M47.8275 261.104L43.7432 274.385C43.7432 274.385 48.1906 273.969 48.6157 274.062C49.0409 274.151 54.2431 261.948 54.2431 261.948L47.8275 261.104Z" fill="white"/>
<path d="M48.1432 261.651L44.4028 273.823C45.7308 273.703 47.6894 273.536 48.4489 273.552C49.0556 272.625 51.4298 267.339 53.5603 262.365L48.1432 261.651ZM43.7435 274.885C43.605 274.885 43.4712 274.818 43.3853 274.693C43.2897 274.563 43.2611 274.385 43.3088 274.224L47.3932 260.943C47.4601 260.719 47.6655 260.578 47.8852 260.604L54.3007 261.453C54.4441 261.469 54.573 261.563 54.6447 261.708C54.7163 261.844 54.7259 262.016 54.6638 262.161C54.6495 262.193 53.3453 265.25 52.003 268.255C49.1416 274.688 48.9744 274.646 48.5301 274.552C48.2339 274.51 45.8836 274.688 43.7865 274.885C43.7722 274.885 43.7579 274.885 43.7435 274.885Z" fill="black"/>
<path d="M44.6795 271.464C44.6795 271.464 50.8179 268.724 51.9549 272.167C53.3975 276.547 55.6571 283.229 55.6571 283.229C56.0392 284.396 55.3036 285.635 54.1762 285.734C51.931 285.932 48.5823 286.089 47.025 285.495C44.5648 284.552 40.4805 276.057 40.4805 276.057L41.7368 268.833C41.7368 268.833 43.9629 268.49 44.6795 271.464Z" fill="#DD3627"/>
<path d="M40.9631 275.979C42.1431 278.401 45.3389 284.318 47.1781 285.021C48.3102 285.453 50.7799 285.526 54.1382 285.234C54.5347 285.198 54.8834 284.969 55.0983 284.609C55.3133 284.245 55.3563 283.807 55.2225 283.401C55.2034 283.338 52.9535 276.667 51.5251 272.333C51.3532 271.818 51.0379 271.453 50.5602 271.219C48.9408 270.432 45.893 271.469 44.8564 271.932C44.7322 271.984 44.5937 271.979 44.4743 271.917C44.3548 271.849 44.2688 271.734 44.2354 271.594C43.7816 269.698 42.6829 269.364 42.124 269.323L40.9631 275.979ZM50.565 286.411C49.108 286.411 47.7417 286.297 46.8723 285.963C44.3118 284.989 40.4998 277.177 40.0746 276.292C40.0269 276.187 40.0077 276.078 40.0269 275.963L41.288 268.734C41.3262 268.526 41.4791 268.364 41.6749 268.333C42.5205 268.203 44.2211 268.583 44.9758 270.812C46.1128 270.37 49.065 269.396 50.9328 270.307C51.6446 270.646 52.1318 271.219 52.3898 271.995C53.8133 276.323 56.0681 282.989 56.0872 283.057C56.3213 283.76 56.2401 284.526 55.8722 285.151C55.4996 285.781 54.8929 286.172 54.2098 286.234C53.0872 286.333 51.7926 286.411 50.565 286.411Z" fill="black"/>
<path d="M54.0854 283.344H47.7798C47.5266 283.344 47.3164 283.114 47.3164 282.838C47.3164 282.562 47.5266 282.338 47.7798 282.338H54.0854C54.3386 282.338 54.544 282.562 54.544 282.838C54.544 283.114 54.3386 283.344 54.0854 283.344Z" fill="black"/>
<path d="M36.2529 264.365L37.6383 277.724L43.2178 276.057L42.7879 264.021L36.2529 264.365Z" fill="white"/>
<path d="M36.7637 264.844L38.0344 277.089L42.7445 275.677L42.348 264.547L36.7637 264.844ZM37.6379 278.229C37.5471 278.229 37.4564 278.198 37.3799 278.141C37.2701 278.057 37.1984 277.927 37.1793 277.781L35.794 264.422C35.7796 264.287 35.8179 264.146 35.8991 264.042C35.9851 263.938 36.0997 263.87 36.2287 263.865L42.7684 263.521C42.8878 263.516 43.0073 263.563 43.098 263.651C43.1888 263.74 43.2461 263.87 43.2509 264L43.6808 276.037C43.6856 276.271 43.5471 276.479 43.3417 276.542L37.7621 278.208C37.7191 278.224 37.6809 278.229 37.6379 278.229Z" fill="black"/>
<path d="M37.1122 287.568H45.9401C47.1344 287.568 48.0516 286.411 47.8796 285.125C47.5834 282.948 46.6232 279.344 43.7427 274.385C43.4322 273.844 42.8828 273.516 42.2953 273.516H39.6106C39.1472 273.516 38.7555 273.896 38.7077 274.396L38.5071 276.51L37.695 275.599C37.3749 275.24 36.816 275.38 36.6775 275.854C36.1616 277.562 35.2253 281.219 35.1536 285.396C35.1345 286.589 36.0183 287.568 37.1122 287.568Z" fill="#DD3627"/>
<path d="M37.2564 275.896C37.2421 275.896 37.2325 275.901 37.2182 275.901C37.1895 275.911 37.137 275.932 37.1131 276.01C36.5828 277.771 35.6847 281.333 35.6131 285.406C35.6083 285.844 35.7564 286.26 36.043 286.578C36.3296 286.896 36.707 287.068 37.1131 287.068H45.941C46.3805 287.068 46.7913 286.859 47.0779 286.5C47.3598 286.14 47.4888 285.667 47.4267 285.198C47.14 283.088 46.199 279.552 43.3566 274.651C43.1273 274.26 42.7213 274.015 42.2961 274.015H39.6115C39.3822 274.015 39.1911 274.203 39.1672 274.448L38.9666 276.562C38.9474 276.755 38.828 276.922 38.656 276.984C38.4889 277.047 38.3025 277 38.1783 276.859L37.3663 275.948C37.328 275.906 37.2898 275.896 37.2564 275.896ZM45.941 288.073H37.1131C36.4586 288.073 35.8472 287.792 35.3886 287.281C34.93 286.771 34.6816 286.099 34.6959 285.385C34.7628 281.182 35.6943 277.51 36.2389 275.698C36.3583 275.307 36.6449 275.015 37.0128 274.927C37.3806 274.833 37.758 274.953 38.0255 275.25L38.1497 275.39L38.25 274.344C38.3264 273.583 38.9092 273.01 39.6115 273.01H42.2961C43.0461 273.01 43.734 273.422 44.1353 274.114C47.0636 279.167 48.0333 282.849 48.3343 285.052C48.4394 285.807 48.234 286.578 47.7754 287.156C47.312 287.739 46.648 288.073 45.941 288.073Z" fill="black"/>
<path d="M45.95 285.771H37.0074C36.7542 285.771 36.5488 285.547 36.5488 285.266C36.5488 284.99 36.7542 284.766 37.0074 284.766H45.95C46.2032 284.766 46.4086 284.99 46.4086 285.266C46.4086 285.547 46.2032 285.771 45.95 285.771Z" fill="black"/>
<path d="M57.2092 184.135C56.9752 183.516 56.5118 183.047 55.929 182.849C52.6997 181.739 41.4403 178.833 29.856 186.932C29.3067 187.318 28.9579 187.958 28.9102 188.667C28.4946 195.083 26.9325 228.646 36.6681 268.385L43.2269 267.875L44.5645 199.932C44.5645 199.932 54.2809 224.838 46.3797 264.484L53.2061 265.854C53.2061 265.854 63.1901 251.542 64.9767 229.667C66.5579 210.318 58.9767 188.833 57.2092 184.135Z" fill="black"/>
<path d="M38.3401 237.026C38.3354 237.026 38.3258 237.026 38.321 237.026C32.0822 236.735 31.38 227.526 31.3705 227.438C31.3513 227.162 31.5424 226.922 31.7956 226.896C32.0488 226.875 32.2685 227.083 32.2876 227.36C32.2972 227.443 32.9373 235.771 38.3592 236.026C38.6124 236.037 38.8083 236.271 38.7987 236.547C38.7892 236.818 38.5838 237.026 38.3401 237.026Z" fill="#FFBD59"/>
<path d="M45.1384 206.661C44.89 206.661 44.6846 206.448 44.675 206.177L44.5031 199.719C44.4601 198.271 45.0859 196.906 46.175 196.073L48.7307 194.115C48.9361 193.958 49.2228 194.01 49.3708 194.24C49.5189 194.463 49.4664 194.776 49.261 194.937L46.7053 196.896C45.8693 197.536 45.3916 198.578 45.4202 199.687L45.597 206.146C45.6018 206.422 45.4059 206.651 45.1527 206.661C45.148 206.661 45.1432 206.661 45.1384 206.661Z" fill="#FFBD59"/>
</svg>
